<svg width="22" height="21" viewBox="0 0 22 21" fill="none" xmlns="http://www.w3.org/2000/svg">
<path d="M2.73389 20.125C3.83789 20.125 4.73389 19.229 4.73389 18.125V10.325C4.73389 6.838 7.57089 4 11.0579 4C14.5449 4 17.3829 6.838 17.3829 10.325V18.125C17.3829 19.229 18.2779 20.125 19.3829 20.125C20.4869 20.125 21.3829 19.229 21.3829 18.125V10.325C21.3839 4.632 16.7519 0 11.0579 0C5.36589 0 0.733887 4.632 0.733887 10.325V18.125C0.733887 19.229 1.62989 20.125 2.73389 20.125Z" fill="url(#paint0_linear_35967_3502)"/>
<defs>
<linearGradient id="paint0_linear_35967_3502" x1="11.0584" y1="0" x2="11.0584" y2="20.125" gradientUnits="userSpaceOnUse">
<stop stop-color="#EF8080"/>
<stop offset="1" stop-color="#F0145A"/>
</linearGradient>
</defs>
</svg>
